<?xml version="1.0" encoding="iso-8859-1"?>
<!-- Uploaded to: SVG Repo, www.svgrepo.com, Generator: SVG Repo Mixer Tools -->
<!DOCTYPE svg PUBLIC "-//W3C//DTD SVG 1.1//EN" "http://www.w3.org/Graphics/SVG/1.1/DTD/svg11.dtd">
<svg fill="#000000" version="1.1" id="Capa_1" xmlns="http://www.w3.org/2000/svg" xmlns:xlink="http://www.w3.org/1999/xlink" 
	 width="800px" height="800px" viewBox="0 0 95.000 95.098"
	 xml:space="preserve">
<g>
	<g>
		
		<path d="M61.697,76.533c2.849,0,5.192-0.721,6.973-2.145l0.166-0.113c0.072-0.05,0.139-0.105,0.201-0.168l7.072-7.072
			c0.268-0.268,0.418-0.629,0.418-1.006s-0.15-0.739-0.418-1.006l-12.08-12.082c-0.558-0.556-1.457-0.556-2.014,0l-6.347,6.348
			c-1.726-0.477-6.312-2.155-11.587-7.432c-5.475-5.474-7.693-10.932-8.243-12.474l6.311-6.31c0.267-0.267,0.417-0.629,0.417-1.006
			s-0.15-0.739-0.417-1.006L30.069,18.981c-0.556-0.557-1.457-0.557-2.014,0l-7.062,7.062c-0.092,0.091-0.17,0.195-0.233,0.307
			l-0.013,0.015c-5.624,6.91,0.004,22.356,12.813,35.165C42.676,70.645,53.72,76.533,61.697,76.533z"/>
	</g>
</g>
</svg>