<?xml version="1.0" encoding="utf-8"?>

<!-- Uploaded to: SVG Repo, www.svgrepo.com, Generator: SVG Repo Mixer Tools -->
<svg fill="#000000" height="800px" width="800px" version="1.1" id="Icons" xmlns="http://www.w3.org/2000/svg" xmlns:xlink="http://www.w3.org/1999/xlink" 
	 viewBox="0 0 32 32" xml:space="preserve">
<g>
	<path d="M26,4.1V3c0-1.7-1.3-3-3-3H9C7.3,0,6,1.3,6,3v1.1C3.7,4.6,2,6.6,2,9v14c0,2.8,2.2,5,5,5h18c2.8,0,5-2.2,5-5V9
		C30,6.6,28.3,4.6,26,4.1z M28,9v0.4l-2,1.2V6.2C27.2,6.6,28,7.7,28,9z M8,3c0-0.6,0.4-1,1-1h14c0.6,0,1,0.4,1,1v8.9l-8,4.9l-8-4.9
		V3z M6,6.2v4.5L4,9.4V9C4,7.7,4.8,6.6,6,6.2z"/>
	<path d="M11,6h7c0.6,0,1-0.4,1-1s-0.4-1-1-1h-7c-0.6,0-1,0.4-1,1S10.4,6,11,6z"/>
	<path d="M11,10h3c0.6,0,1-0.4,1-1s-0.4-1-1-1h-3c-0.6,0-1,0.4-1,1S10.4,10,11,10z"/>
</g>
</svg>