<?xml version="1.0" encoding="UTF-8" standalone="no"?> <svg xmlns="http://www.w3.org/2000/svg" viewBox="0 0 64 64"><title>policy</title><g id="policy"><path d="M14.293,45.707,11.9,43.314l-.7.7a1,1,0,0,1-1.023.241L6.607,43.07l-.036.014L4.895,46.446c-.01.02-.026.035-.037.054.011.018.026.032.036.051l.655,1.3,1.372-.461a1,1,0,0,1,1.026.24l1.42,1.42a1,1,0,0,1,.241,1.026l-.462,1.372,1.3.655A1,1,0,0,1,11,53h3V49a1,1,0,0,1,1-1h3V46H15A1,1,0,0,1,14.293,45.707Z"/><path d="M17,34a1,1,0,0,1-.554.9l-3.362,1.676-.014.036,1.189,3.567a1,1,0,0,1-.242,1.023l-.7.7,2.1,2.1H18V33H17Z"/><path d="M7.226,52.453l-.15-.35a1,1,0,0,1-.024-.7l.463-1.372-.543-.543L5.6,49.947a.99.99,0,0,1-.7-.024l-.356-.152a1,1,0,0,1-.5-.472L4,49.226v1.958a2.982,2.982,0,0,1,0,5.632v1.958l.037-.073a1,1,0,0,1,.5-.472l.356-.152a.99.99,0,0,1,.7-.024l1.373.462.543-.543L7.052,56.6a1,1,0,0,1,.024-.7l.15-.35a1,1,0,0,1,.475-.511L9,54.384v-.768l-1.3-.652A1,1,0,0,1,7.226,52.453Z"/><path d="M5.5,41.354c.216-.082.427-.159.628-.255a.993.993,0,0,1,.749-.047l3.344,1.113,1.946-1.945-1.115-3.344a1,1,0,0,1,.047-.748c.1-.2.176-.416.256-.629a.994.994,0,0,1,.49-.544L15,33.381V30.619l-3.156-1.574a.994.994,0,0,1-.49-.544c-.08-.213-.159-.426-.256-.629a1,1,0,0,1-.047-.748l1.115-3.344L10.22,21.835,6.876,22.948a.984.984,0,0,1-.749-.047c-.2-.1-.412-.173-.623-.253a1.011,1.011,0,0,1-.549-.492L4,20.241V26.09A5.993,5.993,0,0,1,4,37.91v5.849l.955-1.915A.994.994,0,0,1,5.5,41.354Z"/><path d="M7,32a4,4,0,0,0-3-3.858v7.716A4,4,0,0,0,7,32Z"/><path d="M4.54,14.229l.356-.152a.985.985,0,0,1,.7-.024l1.373.462.543-.543L7.052,12.6a1,1,0,0,1,.024-.7l.15-.35a1,1,0,0,1,.475-.511L9,10.384V9.616L7.7,8.964a1,1,0,0,1-.475-.511l-.15-.35a1,1,0,0,1-.024-.7l.463-1.372-.543-.543L5.6,5.947a.99.99,0,0,1-.7-.024L4.54,5.771a1,1,0,0,1-.5-.472L4,5.226V7.184a2.982,2.982,0,0,1,0,5.632v1.958l.037-.073A1,1,0,0,1,4.54,14.229Z"/><path d="M13.314,22.1l.7.7a1,1,0,0,1,.242,1.023L13.07,27.393l.014.036,3.362,1.676A1,1,0,0,1,17,30v1h1V20H15.414Z"/><path d="M14,15V11H11a1,1,0,0,1-.551.894l-1.3.655.462,1.372a1,1,0,0,1-.241,1.026l-1.42,1.42a.994.994,0,0,1-1.026.24l-1.372-.461-.655,1.3c-.01.019-.025.033-.036.051.011.019.027.034.037.054l1.676,3.362.036.014,3.567-1.188a.993.993,0,0,1,1.023.241l.7.7,2.393-2.393A1,1,0,0,1,15,18h3V16H15A1,1,0,0,1,14,15Z"/><path d="M47.447,14.9l-1.3.65.459,1.381a1,1,0,0,1-.241,1.023L44.95,19.364a.992.992,0,0,1-1.024.241l-1.381-.459-.65,1.3A1,1,0,0,1,41,21H39a1,1,0,0,1-.9-.553l-.651-1.3-1.38.459a.993.993,0,0,1-1.024-.241l-1.414-1.415a1,1,0,0,1-.241-1.023l.459-1.381-1.3-.65A1,1,0,0,1,32,14H24v9H56V14H48A1,1,0,0,1,47.447,14.9Z"/><path d="M20,4V60H60V4ZM34,57a1,1,0,0,1-1,1H23a1,1,0,0,1-1-1V27a1,1,0,0,1,1-1H33a1,1,0,0,1,1,1Zm24,1H36V56H58Zm0-3H36V53H58Zm0-3H36V50H58Zm0-3H36V47H58Zm0-3H36V44H58Zm0-3H36V41H58Zm0-3H36V38H58Zm0-3H36V35H58Zm0-3H36V32H58Zm0-3H36V29H58Zm0-3H36V26H58Zm0-4a1,1,0,0,1-1,1H23a1,1,0,0,1-1-1V13a1,1,0,0,1,1-1h9a1,1,0,0,1,.553-.895l1.3-.65L33.4,9.073a1,1,0,0,1,.241-1.023L35.05,6.636A.994.994,0,0,1,36.074,6.4l1.381.459.65-1.3A1,1,0,0,1,39,5h2a1,1,0,0,1,.9.553l.65,1.3L43.926,6.4a1,1,0,0,1,1.024.241l1.414,1.415a1,1,0,0,1,.241,1.023l-.459,1.381,1.3.65A1,1,0,0,1,48,12h9a1,1,0,0,1,1,1Z"/><path d="M35.791,14.577c.036.1.074.192.117.284a1,1,0,0,1,.039.733l-.46,1.379.54.54,1.379-.459a.983.983,0,0,1,.727.037c.1.043.2.083.294.12a1,1,0,0,1,.54.488l.651,1.3h.764l.65-1.3a1,1,0,0,1,.542-.488c.1-.037.193-.074.286-.117a.987.987,0,0,1,.734-.04l1.379.459.54-.54-.46-1.379a1,1,0,0,1,.039-.733c.043-.092.081-.187.117-.284a1,1,0,0,1,.49-.545l1.3-.65v-.764l-1.3-.65a1,1,0,0,1-.49-.545c-.036-.1-.074-.192-.117-.284a1,1,0,0,1-.039-.733l.46-1.379-.54-.54-1.379.459a.974.974,0,0,1-.727-.037c-.1-.043-.194-.083-.293-.12a1,1,0,0,1-.542-.488L40.382,7h-.764l-.65,1.3a1,1,0,0,1-.542.488c-.1.037-.193.074-.286.117a.982.982,0,0,1-.734.04l-1.379-.459-.54.54.46,1.379a1,1,0,0,1-.039.733c-.043.092-.081.187-.117.284a1,1,0,0,1-.49.545l-1.3.65v.764l1.3.65A1,1,0,0,1,35.791,14.577ZM40,10a3,3,0,1,1-3,3A3,3,0,0,1,40,10Z"/><circle cx="40" cy="13" r="1"/><rect x="24" y="28" width="8" height="28"/></g></svg>